<svg width="11" height="9" viewBox="0 0 11 9" fill="none" xmlns="http://www.w3.org/2000/svg">
<path d="M5.53728 8.80562L9.7933 5.0297C9.90278 4.93815 9.97847 4.81928 10.0104 4.68875C10.0423 4.55822 10.029 4.42217 9.97209 4.29852C9.91523 4.17487 9.81753 4.06943 9.69186 3.99609C9.56619 3.92275 9.41846 3.88496 9.26814 3.88769L7.95523 3.88769C7.75979 3.88771 7.57219 3.81941 7.43298 3.69756C7.29377 3.57571 7.21412 3.41009 7.21124 3.2365L7.21124 0.660907C7.21124 0.485624 7.13286 0.317519 6.99334 0.193575C6.85381 0.0696309 6.66458 -1.46991e-07 6.46726 -1.55616e-07L3.55698 -2.82829e-07C3.35966 -2.91454e-07 3.17042 0.0696308 3.0309 0.193575C2.89138 0.317519 2.81299 0.485623 2.81299 0.660907L2.81299 3.2365C2.81012 3.41009 2.73047 3.57571 2.59126 3.69756C2.45204 3.81941 2.26445 3.88771 2.06901 3.88769L0.761572 3.88769C0.612862 3.88549 0.46678 3.92265 0.341918 3.99443C0.217055 4.06621 0.119058 4.16938 0.0604008 4.29079C0.00174217 4.4122 -0.0149242 4.54637 0.0125215 4.67622C0.0399683 4.80608 0.110286 4.92574 0.214525 5.01998L4.47054 8.7959C4.53914 8.85987 4.62148 8.91097 4.7127 8.94619C4.80391 8.9814 4.90215 9.00001 5.0016 9.00092C5.10105 9.00182 5.1997 8.98501 5.29171 8.95146C5.38372 8.91792 5.46722 8.86832 5.53728 8.80562Z" fill="#05324B"/>
</svg>
