<svg width="11" height="9" viewBox="0 0 11 9" fill="none" xmlns="http://www.w3.org/2000/svg">
<path d="M5.53728 0.195338L9.7933 3.97126C9.90278 4.06281 9.97847 4.18168 10.0104 4.3122C10.0423 4.44273 10.029 4.57878 9.97209 4.70243C9.91523 4.82608 9.81753 4.93153 9.69186 5.00487C9.56619 5.0782 9.41846 5.116 9.26814 5.11326L7.95523 5.11326C7.75979 5.11325 7.57219 5.18154 7.43298 5.30339C7.29377 5.42524 7.21412 5.59086 7.21124 5.76445L7.21124 8.34005C7.21124 8.51533 7.13286 8.68343 6.99334 8.80738C6.85381 8.93132 6.66458 9.00095 6.46726 9.00095L3.55698 9.00095C3.35966 9.00095 3.17042 8.93132 3.0309 8.80738C2.89138 8.68343 2.81299 8.51533 2.81299 8.34005L2.81299 5.76445C2.81012 5.59086 2.73047 5.42524 2.59126 5.30339C2.45204 5.18154 2.26445 5.11325 2.06901 5.11327L0.761572 5.11327C0.612862 5.11546 0.46678 5.07831 0.341918 5.00652C0.217055 4.93474 0.119058 4.83158 0.0604008 4.71017C0.00174217 4.58875 -0.0149242 4.45458 0.0125215 4.32473C0.0399683 4.19488 0.110286 4.07522 0.214525 3.98098L4.47054 0.205057C4.53914 0.141086 4.62148 0.0899823 4.7127 0.0547678C4.80391 0.0195534 4.90215 0.000942454 5.0016 3.64593e-05C5.10105 -0.000869536 5.1997 0.0159476 5.29171 0.049493C5.38372 0.0830376 5.46722 0.13263 5.53728 0.195338Z" fill="#05324B"/>
</svg>
