<svg width="11" height="14" viewBox="0 0 11 14" fill="none" xmlns="http://www.w3.org/2000/svg">
<g clip-path="url(#clip0_42_252)">
<path fill-rule="evenodd" clip-rule="evenodd" d="M10.2909 1.83178H0.709145V2.58411H10.2909V1.83178ZM7.88306 4.54673C7.87157 4.49422 7.87209 4.43983 7.88457 4.38755C7.89706 4.33527 7.92119 4.28642 7.95519 4.2446C7.9892 4.20278 8.03222 4.16903 8.08109 4.14585C8.12997 4.12267 8.18345 4.11064 8.23763 4.11064C8.29181 4.11064 8.34529 4.12267 8.39417 4.14585C8.44304 4.16903 8.48606 4.20278 8.52007 4.2446C8.55408 4.28642 8.57821 4.33527 8.59069 4.38755C8.60317 4.43983 8.60369 4.49422 8.5922 4.54673V12.0374C8.60369 12.0899 8.60317 12.1443 8.59069 12.1966C8.57821 12.2488 8.55408 12.2977 8.52007 12.3395C8.48606 12.3813 8.44304 12.4151 8.39417 12.4383C8.34529 12.4614 8.29181 12.4735 8.23763 12.4735C8.18345 12.4735 8.12997 12.4614 8.08109 12.4383C8.03222 12.4151 7.9892 12.3813 7.95519 12.3395C7.92119 12.2977 7.89706 12.2488 7.88457 12.1966C7.87209 12.1443 7.87157 12.0899 7.88306 12.0374V4.54673ZM5.14543 4.54673C5.14543 4.4513 5.18365 4.35978 5.25169 4.2923C5.31974 4.22482 5.41202 4.18692 5.50825 4.18692C5.60447 4.18692 5.69676 4.22482 5.7648 4.2923C5.83284 4.35978 5.87106 4.4513 5.87106 4.54673V12.0374C5.87106 12.1328 5.83284 12.2243 5.7648 12.2918C5.69676 12.3593 5.60447 12.3972 5.50825 12.3972C5.41202 12.3972 5.31974 12.3593 5.25169 12.2918C5.18365 12.2243 5.14543 12.1328 5.14543 12.0374V4.54673ZM2.4078 4.54673C2.4078 4.4513 2.44602 4.35978 2.51406 4.2923C2.5821 4.22482 2.67439 4.18692 2.77061 4.18692C2.86684 4.18692 2.95912 4.22482 3.02717 4.2923C3.09521 4.35978 3.13343 4.4513 3.13343 4.54673V12.0374C3.13343 12.1328 3.09521 12.2243 3.02717 12.2918C2.95912 12.3593 2.86684 12.3972 2.77061 12.3972C2.67439 12.3972 2.5821 12.3593 2.51406 12.2918C2.44602 12.2243 2.4078 12.1328 2.4078 12.0374V4.54673ZM4.27136 1.11215V0.359813C4.26913 0.313353 4.27644 0.266926 4.29284 0.22335C4.30924 0.179773 4.3344 0.139954 4.36678 0.106309C4.39917 0.0726628 4.4381 0.0458911 4.48123 0.027617C4.52437 0.009343 4.57079 -5.25466e-05 4.61769 2.21038e-07H6.38231C6.42921 -5.25466e-05 6.47563 0.009343 6.51877 0.027617C6.5619 0.0458911 6.60083 0.0726628 6.63322 0.106309C6.6656 0.139954 6.69076 0.179773 6.70716 0.22335C6.72356 0.266926 6.73087 0.313353 6.72864 0.359813V1.11215H10.6537C10.747 1.11636 10.8351 1.15612 10.8996 1.22315C10.9641 1.29018 11.0001 1.3793 11 1.47196V2.92757C10.996 3.01738 10.9582 3.10243 10.8941 3.166C10.83 3.22956 10.7442 3.26703 10.6537 3.27103H10.4393V12.8551C10.4424 13.0064 10.4148 13.1568 10.3581 13.2972C10.3015 13.4377 10.2169 13.5655 10.1094 13.6729C9.89172 13.8797 9.60282 13.9967 9.30135 14H1.64918C1.3477 13.9967 1.0588 13.8797 0.841079 13.6729C0.733316 13.5691 0.64838 13.4443 0.591615 13.3064C0.53485 13.1685 0.507486 13.0204 0.511244 12.8715V3.27103H0.362819C0.269383 3.27112 0.179513 3.23547 0.111926 3.17149C0.0443393 3.10751 0.004247 3.02014 0 2.92757L0 1.47196C0 1.37653 0.0382254 1.28501 0.106267 1.21754C0.174309 1.15006 0.266593 1.11215 0.362819 1.11215H4.27136ZM6.01949 1.11215V0.703271H4.94753V1.11215H6.01949ZM1.64918 13.2967H9.30135C9.35751 13.2981 9.41328 13.287 9.46461 13.2644C9.51595 13.2418 9.56158 13.2081 9.5982 13.1659C9.64039 13.1257 9.67386 13.0775 9.69655 13.024C9.71924 12.9706 9.73067 12.9131 9.73013 12.8551V3.27103H1.26987V12.8551C1.26945 12.9691 1.31043 13.0794 1.38531 13.1659C1.41825 13.2041 1.45857 13.2353 1.50389 13.2578C1.54921 13.2803 1.59861 13.2935 1.64918 13.2967Z" fill="#0F6496"/>
</g>
<defs>
<clipPath id="clip0_42_252">
<rect width="11" height="14" fill="white"/>
</clipPath>
</defs>
</svg>
